<?xml version="1.0" encoding="UTF-8"?>
<svg xmlns="http://www.w3.org/2000/svg" xmlns:xlink="http://www.w3.org/1999/xlink" width="25px" height="25px" viewBox="0 0 25 25" version="1.1">
<g id="surface1">
<path style=" stroke:none;fill-rule:evenodd;fill:rgb(13.333333%,66.27451%,34.509804%);fill-opacity:1;" d="M 20.890625 2.019531 L 4.101562 2.019531 C 2.953125 2.019531 2.019531 2.953125 2.019531 4.101562 L 2.019531 20.890625 C 2.019531 22.039062 2.953125 22.972656 4.101562 22.972656 L 20.890625 22.972656 C 22.039062 22.972656 22.972656 22.039062 22.972656 20.890625 L 22.972656 4.101562 C 22.972656 2.953125 22.039062 2.019531 20.890625 2.019531 Z M 10.988281 21.4375 C 9.550781 21.4375 8.382812 20.238281 8.382812 18.765625 C 8.382812 17.292969 9.550781 16.09375 10.988281 16.09375 C 12.421875 16.09375 13.589844 17.292969 13.589844 18.765625 C 13.589844 20.238281 12.421875 21.4375 10.988281 21.4375 Z M 14.296875 12.648438 C 14.015625 13.761719 13.035156 14.542969 11.914062 14.542969 L 9.597656 14.542969 L 12.382812 3.554688 L 16.609375 3.554688 Z M 14.296875 12.648438 "/>
</g>
</svg>
